<svg width="14" height="14" viewBox="0 0 14 14" fill="none" xmlns="http://www.w3.org/2000/svg">
<g id="input-suffix" clip-path="url(#clip0_1355_11391)">
<path id="Union" d="M7.00171 0.878052C3.61929 0.878052 0.876709 3.62063 0.876709 7.00305C0.876709 10.3855 3.61929 13.1281 7.00171 13.1281C10.3841 13.1281 13.1267 10.3855 13.1267 7.00305C13.1267 3.62063 10.3841 0.878052 7.00171 0.878052ZM9.26304 9.33L8.36069 9.3259L7.00171 7.70579L5.64409 9.32454L4.74038 9.32864C4.68022 9.32864 4.63101 9.28079 4.63101 9.21926C4.63101 9.19329 4.64058 9.16868 4.65698 9.14817L6.43569 7.02903L4.65698 4.91125C4.64046 4.89122 4.6313 4.86613 4.63101 4.84016C4.63101 4.78 4.68022 4.73079 4.74038 4.73079L5.64409 4.73489L7.00171 6.355L8.35933 4.73626L9.26167 4.73215C9.32183 4.73215 9.37105 4.78 9.37105 4.84153C9.37105 4.8675 9.36147 4.89211 9.34507 4.91262L7.56909 7.0304L9.34644 9.14954C9.36284 9.17004 9.37241 9.19465 9.37241 9.22063C9.37241 9.28079 9.32319 9.33 9.26304 9.33Z" fill="#A5A9B8"/>
</g>
<defs>
<clipPath id="clip0_1355_11391">
<rect width="14" height="14" fill="white"/>
</clipPath>
</defs>
</svg>
